<svg xmlns="http://www.w3.org/2000/svg" viewBox="0 0 530.91 351.03"><defs><style>.a,.b,.d{fill:none;}.a,.b{stroke:#000;}.a,.c{stroke-width:0.25px;}.b{stroke-width:0.1px;}.c{fill:#ebf2f2;stroke:#090a0a;}.d{stroke:#069;stroke-width:1.5px;}.e{fill:#069;}</style></defs><line class="a" x1="524.8" y1="180.22" y2="180.05"/><path d="M523.45,183.1l-1.64,2.7.09.06,4.41-1.75,4.6-1-4.6-1-4.41-1.75-.09,0Z" transform="translate(0 -2.88)"/><line class="b" x1="8.91" y1="153.08" x2="494.18" y2="153.08"/><line class="b" x1="9.23" y1="126" x2="493.99" y2="126"/><line class="b" x1="8.91" y1="206.97" x2="493.99" y2="206.97"/><line class="b" x1="297.03" y1="341.94" x2="297.03" y2="18.06"/><line class="b" x1="9.07" y1="234.04" x2="494.18" y2="234.04"/><line class="b" x1="386.86" y1="341.82" x2="386.86" y2="18"/><line class="b" x1="477.03" y1="342" x2="477.03" y2="17.82"/><path d="M258.42,187.18a5.56,5.56,0,0,1,.6,2.62,6.64,6.64,0,0,1-.37,2.2,2.46,2.46,0,0,1-2.37,1.94,2.25,2.25,0,0,1-1.9-1.05,5.15,5.15,0,0,1-.8-3,5.8,5.8,0,0,1,.54-2.6,2.34,2.34,0,0,1,2.21-1.48A2.28,2.28,0,0,1,258.42,187.18Zm-.89,5.49a8.7,8.7,0,0,0,.33-2.73,10.44,10.44,0,0,0-.2-2.27c-.24-1.06-.69-1.59-1.36-1.59s-1.12.55-1.36,1.63a10.78,10.78,0,0,0-.2,2.29,9.21,9.21,0,0,0,.2,2.12c.25,1,.72,1.49,1.41,1.49A1.2,1.2,0,0,0,257.53,192.67Z" transform="translate(0 -2.88)"/><path d="M342.33,190.46c.08-.33.17-.63.25-.88l.69-1.93h-1.35c-.13.36-.27.78-.43,1.25s-.33.92-.5,1.34c-.24.63-.44,1.12-.61,1.48a2.81,2.81,0,0,1-.42.7,1,1,0,0,1-.39.23.93.93,0,0,1-.27,0,.45.45,0,0,1-.35-.14.34.34,0,0,1-.12-.31,1,1,0,0,1,0-.21.86.86,0,0,1,.18-.34l.35-.33.15-.14.25-.24a1.32,1.32,0,0,0,.37-.58l1-2.75h-.56a1.16,1.16,0,0,0-.48.11,1.39,1.39,0,0,0-.41.28l-.35.37h-.2l.37-.61a4.89,4.89,0,0,1,.45-.54,2.19,2.19,0,0,1,.59-.46,1.38,1.38,0,0,1,.7-.18h4.48l-.26,1H344q-.24.71-.45,1.38c-.13.43-.27.91-.4,1.44s-.1.67,0,.77a.76.76,0,0,0,.25.24.5.5,0,0,0,.27.07.8.8,0,0,0,.44-.15.94.94,0,0,0,.35-.39l.09-.21a.77.77,0,0,1,.06-.15h.25a3.17,3.17,0,0,1-.58,1.21,2.07,2.07,0,0,1-.63.58,4.24,4.24,0,0,1-.4.17,1.14,1.14,0,0,1-.33,0,.53.53,0,0,1-.39-.14.89.89,0,0,1-.24-.35,1.23,1.23,0,0,1-.13-.48,1.43,1.43,0,0,1,0-.54q.07-.39.15-.69Z" transform="translate(0 -2.88)"/><path d="M425.51,192.53a36.3,36.3,0,0,0,2.91-3.27,3.44,3.44,0,0,0,.77-2,1.76,1.76,0,0,0-.47-1.32,1.55,1.55,0,0,0-1.12-.45,1.63,1.63,0,0,0-1.3.58,3.69,3.69,0,0,0-.53,1l-.25-.05a3.06,3.06,0,0,1,1-1.87,2.43,2.43,0,0,1,1.5-.53,2.13,2.13,0,0,1,1.6.63,2.07,2.07,0,0,1,.61,1.52,3.06,3.06,0,0,1-.66,1.85,38.13,38.13,0,0,1-2.88,3.17h2.69a1.73,1.73,0,0,0,.8-.13,1.77,1.77,0,0,0,.51-.66l.15.07-.65,1.64h-4.68Z" transform="translate(0 -2.88)"/><path d="M435.37,190.66c.09-.33.17-.63.26-.88l.68-1.93H435c-.12.36-.27.78-.43,1.25l-.49,1.34c-.25.63-.45,1.12-.61,1.48a2.78,2.78,0,0,1-.43.7.94.94,0,0,1-.38.23,1,1,0,0,1-.28,0,.44.44,0,0,1-.34-.14.33.33,0,0,1-.13-.31c0-.11,0-.18,0-.21a.86.86,0,0,1,.18-.34l.35-.33.15-.14.26-.24a1.41,1.41,0,0,0,.37-.58l1-2.75h-.57a1.2,1.2,0,0,0-.48.11,1.54,1.54,0,0,0-.41.28l-.34.37h-.21l.37-.61a3.53,3.53,0,0,1,.45-.54,2.4,2.4,0,0,1,.6-.46,1.35,1.35,0,0,1,.7-.18h4.47l-.25,1h-1.51q-.26.71-.45,1.38c-.14.43-.27.91-.41,1.44s-.1.66,0,.77a.61.61,0,0,0,.25.24.44.44,0,0,0,.26.07.8.8,0,0,0,.44-.15.87.87,0,0,0,.35-.39,1.89,1.89,0,0,0,.09-.21.77.77,0,0,1,.06-.15h.25a3.31,3.31,0,0,1-.57,1.21,2.07,2.07,0,0,1-.63.58c-.07,0-.21.09-.4.17a1.16,1.16,0,0,1-.34.05.49.49,0,0,1-.38-.14.81.81,0,0,1-.25-.35,1.43,1.43,0,0,1-.13-.48,1.67,1.67,0,0,1,0-.54q.07-.39.15-.69Z" transform="translate(0 -2.88)"/><line class="b" x1="9.23" y1="99" x2="494.18" y2="99"/><line class="b" x1="9.07" y1="71.74" x2="493.99" y2="71.74"/><line class="b" x1="8.91" y1="261.17" x2="494.18" y2="261.17"/><line class="b" x1="9.07" y1="287.91" x2="493.99" y2="287.91"/><line class="a" x1="252.06" y1="351.03" x2="252.06" y2="6.11"/><path d="M252.06,10.34,249.35,12l-.06-.09L251,7.48l1-4.6c.33,1.53.67,3.07,1,4.6l1.75,4.41,0,.09Z" transform="translate(0 -2.88)"/><line class="b" x1="8.91" y1="45.2" x2="494.56" y2="45.2"/><line class="b" x1="207.44" y1="342.17" x2="207.44" y2="17.83"/><line class="b" x1="9.23" y1="315.26" x2="494.18" y2="315.26"/><line class="b" x1="116.97" y1="341.65" x2="116.97" y2="17.42"/><rect x="151.47" y="186.47" width="6.29" height="0.66"/><path d="M162.3,190.8c.09-.33.17-.63.26-.88l.68-1.93h-1.35c-.12.36-.26.78-.43,1.25l-.49,1.34c-.24.63-.45,1.12-.61,1.48a2.78,2.78,0,0,1-.43.7.94.94,0,0,1-.38.23,1,1,0,0,1-.28,0,.46.46,0,0,1-.34-.14.35.35,0,0,1-.13-.31.78.78,0,0,1,0-.21A.86.86,0,0,1,159,192l.34-.33.16-.14.25-.24a1.41,1.41,0,0,0,.37-.58l1-2.75h-.57a1.2,1.2,0,0,0-.48.11,1.72,1.72,0,0,0-.41.28l-.34.37h-.21l.37-.61a3.5,3.5,0,0,1,.46-.54,2.19,2.19,0,0,1,.59-.46,1.35,1.35,0,0,1,.7-.18h4.48l-.26,1H164q-.25.7-.45,1.38c-.14.43-.27.91-.4,1.44s-.11.66,0,.77a.61.61,0,0,0,.25.24.46.46,0,0,0,.26.07.78.78,0,0,0,.44-.15.87.87,0,0,0,.35-.39,1,1,0,0,0,.09-.21.77.77,0,0,1,.06-.15h.25a3.15,3.15,0,0,1-.57,1.21,2.07,2.07,0,0,1-.63.58,4.24,4.24,0,0,1-.4.17,1.14,1.14,0,0,1-.33.05.5.5,0,0,1-.39-.14.81.81,0,0,1-.25-.35,1.72,1.72,0,0,1-.13-.48,1.67,1.67,0,0,1,0-.54q.07-.39.15-.69Z" transform="translate(0 -2.88)"/><path d="M247.71,151.53v7.12c0,.31.08.5.24.58a2.53,2.53,0,0,0,.9.15v.16h-3.31v-.18a1.9,1.9,0,0,0,.93-.19.85.85,0,0,0,.21-.69v-5.42a1,1,0,0,0-.07-.43q-.06-.15-.3-.15a1.28,1.28,0,0,0-.4.09l-.45.18v-.17l2.15-1.09h.07Z" transform="translate(0 -2.88)"/><path d="M244.49,132.12a36.3,36.3,0,0,0,2.91-3.27,3.44,3.44,0,0,0,.77-2,1.77,1.77,0,0,0-.47-1.32,1.56,1.56,0,0,0-1.12-.45,1.61,1.61,0,0,0-1.3.58,3.43,3.43,0,0,0-.53,1l-.25-.05a3,3,0,0,1,1-1.87,2.46,2.46,0,0,1,1.5-.52,2.15,2.15,0,0,1,1.61.62,2.07,2.07,0,0,1,.61,1.52,3.06,3.06,0,0,1-.66,1.85,38.13,38.13,0,0,1-2.88,3.17h2.69a1.68,1.68,0,0,0,.79-.13,1.87,1.87,0,0,0,.52-.66l.15.07-.65,1.64h-4.68Z" transform="translate(0 -2.88)"/><rect x="237.76" y="206.74" width="6.29" height="0.66"/><path d="M247.71,205.07v7.12q0,.45.24.57a2.53,2.53,0,0,0,.9.15v.16h-3.31v-.17a2,2,0,0,0,.93-.2c.14-.1.21-.33.21-.68v-5.43a.94.94,0,0,0-.07-.42q-.06-.15-.3-.15a1.55,1.55,0,0,0-.4.08l-.45.18v-.16l2.15-1.1h.07S247.7,205.06,247.71,205.07Z" transform="translate(0 -2.88)"/><rect x="237.76" y="233.5" width="6.29" height="0.66"/><path d="M244.49,239.7a39.36,39.36,0,0,0,2.91-3.27,3.46,3.46,0,0,0,.77-2,1.76,1.76,0,0,0-.47-1.32,1.57,1.57,0,0,0-1.12-.46,1.62,1.62,0,0,0-1.3.59,3.18,3.18,0,0,0-.53,1l-.25,0a3,3,0,0,1,1-1.87,2.47,2.47,0,0,1,1.5-.53,2.15,2.15,0,0,1,1.61.63,2.07,2.07,0,0,1,.61,1.52,3.06,3.06,0,0,1-.66,1.85,39.88,39.88,0,0,1-2.88,3.17h2.69a1.66,1.66,0,0,0,.79-.14,1.91,1.91,0,0,0,.52-.65l.15.07-.65,1.63h-4.68Z" transform="translate(0 -2.88)"/><path d="M245.91,105.05a1.78,1.78,0,0,0,.9.34,1.4,1.4,0,0,0,1.22-.56,2,2,0,0,0,.08-2.31,2.08,2.08,0,0,0-1.84-.8h-.15l-.16,0v-.15a5.27,5.27,0,0,0,1.47-.78,1.43,1.43,0,0,0,.54-1.16,1.19,1.19,0,0,0-.42-1,1.56,1.56,0,0,0-1-.33,1.62,1.62,0,0,0-1.14.47,4,4,0,0,0-.58.8l-.18,0a2.66,2.66,0,0,1,.87-1.42,2.23,2.23,0,0,1,1.48-.54,1.84,1.84,0,0,1,1.38.5,1.52,1.52,0,0,1,.49,1.13,1.59,1.59,0,0,1-.4,1.05,4,4,0,0,1-.71.6,3.08,3.08,0,0,1,.9.56,2.06,2.06,0,0,1,.64,1.56,2.63,2.63,0,0,1-.88,2,3.4,3.4,0,0,1-2.49.85,1.79,1.79,0,0,1-1-.21.6.6,0,0,1-.29-.46.46.46,0,0,1,.1-.29.34.34,0,0,1,.31-.15A1.77,1.77,0,0,1,245.91,105.05Z" transform="translate(0 -2.88)"/><path d="M248,70.64h.56v5.28h1.23v.77h-1.23v2h-.93v-2h-3.38v-.77Zm-.38,1.21-2.88,4.07h2.88Z" transform="translate(0 -2.88)"/><path d="M245.9,50.15a1.71,1.71,0,0,0,.84.38,1.51,1.51,0,0,0,1.18-.6,2.14,2.14,0,0,0,.5-1.46,2.26,2.26,0,0,0-1.62-2.18,4.29,4.29,0,0,0-1.67-.37H245l-.08-.06a.31.31,0,0,0,0-.08.14.14,0,0,0,0-.06l1.28-2.8h2.51a.56.56,0,0,0,.29-.07,1.28,1.28,0,0,0,.27-.24l.09.08-.45,1.09a.13.13,0,0,1-.13.06l-.23,0h-2.27l-.49,1a8.78,8.78,0,0,1,1.4.31,3.13,3.13,0,0,1,1.23.72,3,3,0,0,1,.64.94,2.88,2.88,0,0,1,.22,1.1,2.84,2.84,0,0,1-.93,2.16A3.25,3.25,0,0,1,246,51a2.92,2.92,0,0,1-.92-.11c-.39-.12-.59-.33-.59-.65a.39.39,0,0,1,.13-.3.5.5,0,0,1,.39-.14A1.71,1.71,0,0,1,245.9,50.15Z" transform="translate(0 -2.88)"/><rect x="237.76" y="260.86" width="6.29" height="0.66"/><path d="M245.91,266.51a1.78,1.78,0,0,0,.9.34,1.39,1.39,0,0,0,1.22-.55,2,2,0,0,0,.4-1.21,1.92,1.92,0,0,0-.32-1.1,2.06,2.06,0,0,0-1.84-.81H246v-.15a5.27,5.27,0,0,0,1.47-.78,1.42,1.42,0,0,0,.54-1.16,1.15,1.15,0,0,0-.42-1,1.51,1.51,0,0,0-1-.34,1.59,1.59,0,0,0-1.14.48,3.58,3.58,0,0,0-.58.79l-.18,0a2.66,2.66,0,0,1,.87-1.42,2.22,2.22,0,0,1,1.48-.53,1.83,1.83,0,0,1,1.38.49,1.56,1.56,0,0,1,.49,1.14,1.58,1.58,0,0,1-.4,1,3.6,3.6,0,0,1-.71.6,3.08,3.08,0,0,1,.9.56,2.06,2.06,0,0,1,.64,1.56,2.66,2.66,0,0,1-.88,2,3.45,3.45,0,0,1-2.49.85,1.77,1.77,0,0,1-1-.22.59.59,0,0,1-.29-.46.46.46,0,0,1,.1-.29.33.33,0,0,1,.31-.14A1.74,1.74,0,0,1,245.91,266.51Z" transform="translate(0 -2.88)"/><rect x="237.76" y="287.82" width="6.29" height="0.66"/><path d="M248,286.11h.56v5.27h1.23v.78h-1.23v2h-.93v-2h-3.38v-.78Zm-.38,1.21-2.88,4.06h2.88Z" transform="translate(0 -2.88)"/><rect x="237.76" y="314.92" width="6.29" height="0.66"/><path d="M245.9,320.56a1.71,1.71,0,0,0,.84.38,1.51,1.51,0,0,0,1.18-.6,2.14,2.14,0,0,0,.5-1.46,2.26,2.26,0,0,0-1.62-2.18,4.29,4.29,0,0,0-1.67-.37H245l-.08-.06a.31.31,0,0,0,0-.08.14.14,0,0,0,0-.06l1.28-2.8h2.51a.56.56,0,0,0,.29-.07,1.28,1.28,0,0,0,.27-.24l.09.08-.45,1.09s-.06.05-.13.06l-.23,0h-2.27l-.49,1a11.82,11.82,0,0,1,1.4.31,3.27,3.27,0,0,1,1.23.73,3,3,0,0,1,.64.94,2.94,2.94,0,0,1-.71,3.26,3.29,3.29,0,0,1-2.34.86,2.92,2.92,0,0,1-.92-.11c-.39-.12-.59-.34-.59-.65a.42.42,0,0,1,.13-.31.54.54,0,0,1,.39-.13A1.71,1.71,0,0,1,245.9,320.56Z" transform="translate(0 -2.88)"/><circle class="c" cx="252.07" cy="180.06" r="1.32"/><path class="d" d="M209.76,25c-.47,17.13,4,88.71,8.08,102.44,4.21,14.33,11.63,28.69,34.43,28.69,23.74,0,29.26-14.8,34.19-28.54s8.79-86.39,8.31-102.89" transform="translate(0 -2.88)"/><path class="d" d="M389.55,25c-.48,17.13,4,88.71,8.07,102.44,4.22,14.33,11.64,28.69,34.43,28.69,23.75,0,29.27-14.8,34.2-28.54S475,41.21,474.56,24.71" transform="translate(0 -2.88)"/><path class="d" d="M299.37,340.76c-.47-17.13,4-88.71,8.08-102.44,4.21-14.33,11.63-28.69,34.43-28.69,23.75,0,29.26,14.8,34.19,28.54s8.79,86.39,8.31,102.89" transform="translate(0 -2.88)"/><path class="d" d="M119.72,340.76c-.47-17.13,4-88.71,8.08-102.44,4.21-14.33,11.63-28.69,34.43-28.69,23.74,0,29.26,14.8,34.19,28.54s8.79,86.39,8.31,102.89" transform="translate(0 -2.88)"/><line class="b" x1="27.09" y1="342.17" x2="27.09" y2="18"/><path class="d" d="M29.67,25c-.48,17.13,4,88.71,8.07,102.44,4.21,14.33,11.63,28.69,34.43,28.69,23.75,0,29.26-14.8,34.2-28.54s8.78-86.39,8.31-102.89" transform="translate(0 -2.88)"/><line class="a" x1="342.06" y1="178.71" x2="342.06" y2="181.51"/><line class="a" x1="432.06" y1="178.71" x2="432.06" y2="181.51"/><line class="a" x1="162.23" y1="178.71" x2="162.23" y2="181.51"/><line class="a" x1="72.06" y1="178.71" x2="72.06" y2="181.51"/><path d="M473.39,190.86a1.49,1.49,0,0,0,.7.32,1.27,1.27,0,0,0,1-.5,1.83,1.83,0,0,0,.42-1.22,1.89,1.89,0,0,0-1.35-1.82,3.63,3.63,0,0,0-1.4-.31h-.13s0,0-.07,0l0-.07a.43.43,0,0,0,0,0l1.07-2.33h2.1a.43.43,0,0,0,.24-.06.91.91,0,0,0,.22-.2l.08.07-.38.91s-.05,0-.11.05h-2.08l-.42.86a9,9,0,0,1,1.18.26,2.58,2.58,0,0,1,1,.6,2.35,2.35,0,0,1,.53.78,2.4,2.4,0,0,1,.19.92,2.35,2.35,0,0,1-.78,1.8,2.7,2.7,0,0,1-1.95.73,2.4,2.4,0,0,1-.77-.1c-.33-.1-.49-.28-.49-.54a.38.38,0,0,1,.11-.26.44.44,0,0,1,.32-.11A1.42,1.42,0,0,1,473.39,190.86Z" transform="translate(0 -2.88)"/><path d="M480.44,189.77c.07-.28.14-.53.21-.74l.57-1.6h-1.13c-.1.3-.22.64-.36,1s-.27.77-.41,1.13c-.2.52-.37.93-.5,1.23a2.36,2.36,0,0,1-.36.58.74.74,0,0,1-.32.19.7.7,0,0,1-.23,0,.38.38,0,0,1-.29-.12.28.28,0,0,1-.1-.26.6.6,0,0,1,.16-.46l.29-.27.13-.12.21-.2a1.37,1.37,0,0,0,.31-.48l.86-2.29H479a1.1,1.1,0,0,0-.4.08,1.42,1.42,0,0,0-.34.23l-.29.32h-.17l.31-.52a4,4,0,0,1,.38-.45,2,2,0,0,1,.49-.38,1.25,1.25,0,0,1,.59-.14h3.73l-.22.86h-1.26c-.13.38-.26.77-.37,1.15s-.23.75-.34,1.2-.08.55,0,.64a.75.75,0,0,0,.21.2.43.43,0,0,0,.22.06.69.69,0,0,0,.37-.13.74.74,0,0,0,.29-.32,1.42,1.42,0,0,0,.08-.18.48.48,0,0,1,0-.12h.21a2.66,2.66,0,0,1-.48,1,1.84,1.84,0,0,1-.53.49l-.33.14a.82.82,0,0,1-.28,0,.44.44,0,0,1-.32-.11.88.88,0,0,1-.21-.3,1.49,1.49,0,0,1-.11-.4,1.41,1.41,0,0,1,0-.45,4.91,4.91,0,0,1,.13-.57Z" transform="translate(0 -2.88)"/><path d="M475.52,202a33.13,33.13,0,0,0,2.43-2.73,2.84,2.84,0,0,0,.64-1.69,1.46,1.46,0,0,0-.39-1.1,1.26,1.26,0,0,0-.93-.38,1.35,1.35,0,0,0-1.09.49,2.9,2.9,0,0,0-.44.82l-.21,0a2.52,2.52,0,0,1,.83-1.56,2.07,2.07,0,0,1,1.25-.44,1.79,1.79,0,0,1,1.34.52,1.75,1.75,0,0,1,.51,1.27,2.51,2.51,0,0,1-.55,1.54,33.32,33.32,0,0,1-2.4,2.65h2.24a1.33,1.33,0,0,0,.66-.12,1.36,1.36,0,0,0,.43-.54l.13.06-.54,1.36h-3.91Z" transform="translate(0 -2.88)"/><rect x="471.34" y="190.38" width="12.77" height="0.5"/><path d="M383.41,190.88a1.43,1.43,0,0,0,.75.28,1.18,1.18,0,0,0,1-.46,1.72,1.72,0,0,0,.33-1,1.65,1.65,0,0,0-.26-.92,1.73,1.73,0,0,0-1.54-.67h-.26V188a4.38,4.38,0,0,0,1.23-.65,1.2,1.2,0,0,0,.45-1,.94.94,0,0,0-.35-.81,1.27,1.27,0,0,0-.81-.28,1.32,1.32,0,0,0-.95.4,2.82,2.82,0,0,0-.48.66l-.15,0a2.22,2.22,0,0,1,.73-1.19,1.83,1.83,0,0,1,1.23-.45,1.55,1.55,0,0,1,1.15.41,1.33,1.33,0,0,1,.41.95,1.28,1.28,0,0,1-.34.87,3,3,0,0,1-.59.51,2.35,2.35,0,0,1,.75.47,1.7,1.7,0,0,1,.54,1.29,2.24,2.24,0,0,1-.73,1.64,2.88,2.88,0,0,1-2.08.71,1.51,1.51,0,0,1-.85-.18.48.48,0,0,1-.24-.38.46.46,0,0,1,.08-.25.32.32,0,0,1,.26-.11A1.47,1.47,0,0,1,383.41,190.88Z" transform="translate(0 -2.88)"/><path d="M389.81,189.78A6.71,6.71,0,0,1,390,189l.57-1.61h-1.13c-.1.3-.22.65-.36,1s-.27.77-.41,1.12c-.2.53-.37.94-.51,1.24a2.62,2.62,0,0,1-.35.58.74.74,0,0,1-.32.19,1.24,1.24,0,0,1-.23,0,.37.37,0,0,1-.29-.12.29.29,0,0,1-.11-.26.49.49,0,0,1,0-.17.62.62,0,0,1,.15-.29l.28-.27a.81.81,0,0,0,.13-.12l.21-.2a1.24,1.24,0,0,0,.31-.48l.87-2.3h-.47a.93.93,0,0,0-.4.09,1.18,1.18,0,0,0-.34.23l-.29.32h-.17l.31-.52a4.05,4.05,0,0,1,.37-.45,2.07,2.07,0,0,1,.5-.38,1.11,1.11,0,0,1,.58-.15h3.74l-.22.86h-1.26c-.14.39-.26.78-.37,1.15s-.23.76-.34,1.21-.08.55,0,.64a.75.75,0,0,0,.21.2.54.54,0,0,0,.22.05.7.7,0,0,0,.37-.12.72.72,0,0,0,.29-.33c0-.06.05-.12.07-.17a.87.87,0,0,1,0-.12h.21a2.39,2.39,0,0,1-.48,1,1.83,1.83,0,0,1-.52.49l-.33.14a.86.86,0,0,1-.28,0,.49.49,0,0,1-.33-.11,1,1,0,0,1-.2-.3,1.27,1.27,0,0,1-.11-.4,1.41,1.41,0,0,1,0-.45q.06-.33.12-.57Z" transform="translate(0 -2.88)"/><path d="M385.11,202a33.13,33.13,0,0,0,2.43-2.73,2.91,2.91,0,0,0,.64-1.69,1.49,1.49,0,0,0-.39-1.11,1.31,1.31,0,0,0-.94-.37,1.36,1.36,0,0,0-1.08.48,2.73,2.73,0,0,0-.44.83l-.21,0a2.52,2.52,0,0,1,.83-1.56,2,2,0,0,1,1.25-.44,1.79,1.79,0,0,1,1.34.52,1.73,1.73,0,0,1,.51,1.27,2.54,2.54,0,0,1-.56,1.54,29.63,29.63,0,0,1-2.4,2.65h2.25a1.33,1.33,0,0,0,.66-.12,1.36,1.36,0,0,0,.43-.54l.12.05-.54,1.37h-3.9Z" transform="translate(0 -2.88)"/><rect x="381.14" y="190.39" width="12.35" height="0.5"/><rect x="104.95" y="191.52" width="5.24" height="0.55"/><path d="M114.12,191.94a1.43,1.43,0,0,0,.75.28,1.16,1.16,0,0,0,1-.46,1.64,1.64,0,0,0,.34-1,1.61,1.61,0,0,0-.27-.92,1.75,1.75,0,0,0-1.54-.67h-.26v-.13a4.08,4.08,0,0,0,1.24-.65,1.19,1.19,0,0,0,.45-1,1,1,0,0,0-.36-.81,1.3,1.3,0,0,0-.81-.28,1.36,1.36,0,0,0-1,.4,2.82,2.82,0,0,0-.48.66l-.15,0a2.22,2.22,0,0,1,.73-1.19,1.87,1.87,0,0,1,1.23-.44,1.51,1.51,0,0,1,1.15.41,1.27,1.27,0,0,1,.41.95,1.31,1.31,0,0,1-.34.87,3,3,0,0,1-.59.5,2.41,2.41,0,0,1,.76.47,1.73,1.73,0,0,1,.53,1.3,2.22,2.22,0,0,1-.73,1.64,2.88,2.88,0,0,1-2.08.7,1.55,1.55,0,0,1-.84-.17.49.49,0,0,1-.25-.39.46.46,0,0,1,.08-.24.32.32,0,0,1,.27-.12A1.44,1.44,0,0,1,114.12,191.94Z" transform="translate(0 -2.88)"/><path d="M120.53,190.84c.07-.28.14-.53.21-.73l.57-1.61h-1.13c-.1.3-.22.64-.36,1s-.27.77-.41,1.13c-.2.52-.37.93-.5,1.23a2.36,2.36,0,0,1-.36.58.74.74,0,0,1-.32.19.7.7,0,0,1-.23,0,.38.38,0,0,1-.29-.12.28.28,0,0,1-.1-.26.6.6,0,0,1,.16-.46,3.28,3.28,0,0,1,.29-.27l.13-.12.21-.2a1.21,1.21,0,0,0,.31-.48l.86-2.29h-.47a.93.93,0,0,0-.4.09,1,1,0,0,0-.34.23l-.29.31h-.17c.07-.12.17-.29.31-.51a3.41,3.41,0,0,1,.37-.45,2.33,2.33,0,0,1,.5-.39,1.25,1.25,0,0,1,.59-.14h3.73l-.22.86h-1.26c-.13.39-.26.77-.37,1.15s-.23.75-.34,1.2-.08.55,0,.64a.75.75,0,0,0,.21.2.43.43,0,0,0,.22.06.62.62,0,0,0,.37-.13.74.74,0,0,0,.29-.32,1.42,1.42,0,0,0,.08-.18.73.73,0,0,1,.05-.12h.21a2.59,2.59,0,0,1-.48,1,1.7,1.7,0,0,1-.53.49l-.33.14a.82.82,0,0,1-.28,0,.44.44,0,0,1-.32-.11.88.88,0,0,1-.21-.3,1.49,1.49,0,0,1-.11-.4,1.41,1.41,0,0,1,0-.45c0-.21.08-.4.13-.57Z" transform="translate(0 -2.88)"/><path d="M115.82,203.06a33.13,33.13,0,0,0,2.43-2.73,2.84,2.84,0,0,0,.64-1.69,1.46,1.46,0,0,0-.39-1.1,1.3,1.3,0,0,0-.93-.38,1.35,1.35,0,0,0-1.09.49,2.9,2.9,0,0,0-.44.82l-.21,0a2.52,2.52,0,0,1,.83-1.56,2.07,2.07,0,0,1,1.25-.44,1.79,1.79,0,0,1,1.34.52,1.75,1.75,0,0,1,.51,1.27,2.55,2.55,0,0,1-.55,1.55q-.55.73-2.4,2.64h2.24a1.48,1.48,0,0,0,.66-.11,1.5,1.5,0,0,0,.43-.55l.13.06-.54,1.36h-3.91Z" transform="translate(0 -2.88)"/><rect x="111.85" y="191.46" width="12.35" height="0.5"/><rect x="14.51" y="191.67" width="5.24" height="0.55"/><path d="M23.47,192.08a1.43,1.43,0,0,0,.69.32,1.27,1.27,0,0,0,1-.5,1.83,1.83,0,0,0,.42-1.22,1.89,1.89,0,0,0-1.35-1.82,3.63,3.63,0,0,0-1.4-.31h-.13s0,0-.07,0l0-.07a.43.43,0,0,0,0,0L23.72,186h2.1a.43.43,0,0,0,.24-.06.91.91,0,0,0,.22-.2l.08.07-.38.91s-.05,0-.11.05H23.79l-.42.86a9,9,0,0,1,1.18.26,2.71,2.71,0,0,1,1,.6,2.46,2.46,0,0,1,.53.78,2.4,2.4,0,0,1,.19.92,2.35,2.35,0,0,1-.78,1.8,2.7,2.7,0,0,1-2,.73,2.4,2.4,0,0,1-.77-.1c-.32-.1-.49-.28-.49-.54a.34.34,0,0,1,.11-.25.41.41,0,0,1,.32-.12A1.47,1.47,0,0,1,23.47,192.08Z" transform="translate(0 -2.88)"/><path d="M30.51,191c.07-.28.14-.53.21-.74l.57-1.6H30.16c-.1.3-.22.64-.36,1s-.27.77-.41,1.13c-.2.52-.37.93-.5,1.23a2.36,2.36,0,0,1-.36.58.74.74,0,0,1-.32.19.7.7,0,0,1-.23,0,.38.38,0,0,1-.29-.12.28.28,0,0,1-.1-.26.6.6,0,0,1,.16-.46l.29-.27.13-.12.21-.2a1.37,1.37,0,0,0,.31-.48l.86-2.29h-.47a1,1,0,0,0-.4.09,1.17,1.17,0,0,0-.34.22l-.29.32h-.17l.31-.52a4,4,0,0,1,.38-.45,2,2,0,0,1,.49-.38,1.25,1.25,0,0,1,.59-.14h3.73l-.22.86H31.9c-.13.38-.26.77-.37,1.15s-.22.75-.34,1.2-.08.55,0,.64a.62.62,0,0,0,.2.2.43.43,0,0,0,.22.06.69.69,0,0,0,.37-.13.74.74,0,0,0,.29-.32,1.42,1.42,0,0,0,.08-.18.73.73,0,0,1,0-.12h.21a2.66,2.66,0,0,1-.48,1,1.84,1.84,0,0,1-.53.49l-.33.14a.82.82,0,0,1-.28,0,.44.44,0,0,1-.32-.11.88.88,0,0,1-.21-.3,1.49,1.49,0,0,1-.11-.4,1.41,1.41,0,0,1,0-.45c0-.22.09-.41.13-.57Z" transform="translate(0 -2.88)"/><path d="M25.59,203.21A29.66,29.66,0,0,0,28,200.48a2.84,2.84,0,0,0,.64-1.69,1.46,1.46,0,0,0-.39-1.1,1.3,1.3,0,0,0-.93-.38,1.35,1.35,0,0,0-1.09.49,2.9,2.9,0,0,0-.44.82l-.21,0a2.57,2.57,0,0,1,.83-1.56,2.07,2.07,0,0,1,1.25-.44,1.77,1.77,0,0,1,1.34.52,1.75,1.75,0,0,1,.51,1.27,2.55,2.55,0,0,1-.55,1.55q-.56.74-2.4,2.64h2.24a1.42,1.42,0,0,0,.66-.11,1.5,1.5,0,0,0,.43-.55L30,202l-.54,1.36H25.59Z" transform="translate(0 -2.88)"/><rect x="21.41" y="191.6" width="12.77" height="0.5"/><rect x="196.56" y="190.67" width="5.24" height="0.55"/><path d="M207.18,190c.07-.28.14-.53.21-.74l.58-1.6h-1.13c-.1.3-.22.64-.36,1l-.41,1.13q-.3.78-.51,1.23a2.26,2.26,0,0,1-.36.58.69.69,0,0,1-.32.19.66.66,0,0,1-.23,0,.36.36,0,0,1-.28-.12.29.29,0,0,1-.11-.26c0-.09,0-.15,0-.17a.89.89,0,0,1,.15-.29l.29-.27.13-.12.21-.2a1.37,1.37,0,0,0,.31-.48l.87-2.29h-.48a1,1,0,0,0-.4.08,1.66,1.66,0,0,0-.34.23l-.28.32h-.18c.08-.12.18-.29.31-.52a5.43,5.43,0,0,1,.38-.45,2.07,2.07,0,0,1,.5-.38,1.11,1.11,0,0,1,.58-.14h3.73l-.21.86h-1.26c-.14.38-.26.77-.38,1.14s-.22.76-.33,1.21-.09.55,0,.64a.75.75,0,0,0,.21.2.4.4,0,0,0,.22.06.72.72,0,0,0,.37-.13.74.74,0,0,0,.29-.32l.07-.18a.87.87,0,0,1,.05-.12h.21a2.66,2.66,0,0,1-.48,1,1.83,1.83,0,0,1-.52.49l-.34.14a.77.77,0,0,1-.27,0,.45.45,0,0,1-.33-.11.87.87,0,0,1-.2-.3,1.2,1.2,0,0,1-.11-.4,1.17,1.17,0,0,1,0-.45q.06-.33.12-.57Z" transform="translate(0 -2.88)"/><path d="M205,202.21a33.13,33.13,0,0,0,2.43-2.73,2.84,2.84,0,0,0,.64-1.69,1.46,1.46,0,0,0-.39-1.1,1.26,1.26,0,0,0-.93-.38,1.35,1.35,0,0,0-1.09.49,2.9,2.9,0,0,0-.44.82l-.21,0a2.52,2.52,0,0,1,.83-1.56,2.07,2.07,0,0,1,1.25-.44,1.79,1.79,0,0,1,1.34.52,1.75,1.75,0,0,1,.51,1.27,2.51,2.51,0,0,1-.55,1.54,33.32,33.32,0,0,1-2.4,2.65h2.24a1.33,1.33,0,0,0,.66-.12,1.36,1.36,0,0,0,.43-.54l.13.06-.54,1.36H205Z" transform="translate(0 -2.88)"/><rect x="203.45" y="190.6" width="7.4" height="0.5"/><path d="M297.29,189.32c.07-.28.14-.53.21-.74l.57-1.6h-1.13c-.1.3-.22.64-.36,1s-.27.77-.41,1.13c-.2.52-.37.93-.5,1.23a2.58,2.58,0,0,1-.36.58.74.74,0,0,1-.32.19.7.7,0,0,1-.23,0,.38.38,0,0,1-.29-.12.28.28,0,0,1-.1-.26.6.6,0,0,1,.16-.46l.29-.27L295,190l.21-.2a1.37,1.37,0,0,0,.31-.48l.86-2.29h-.47a.92.92,0,0,0-.4.08,1.18,1.18,0,0,0-.34.23l-.29.32h-.17l.31-.52a4,4,0,0,1,.38-.45,2,2,0,0,1,.49-.38,1.15,1.15,0,0,1,.59-.14h3.73l-.22.86h-1.26c-.13.38-.26.77-.37,1.14s-.23.76-.34,1.21-.08.55,0,.64a.75.75,0,0,0,.21.2.43.43,0,0,0,.22.06.69.69,0,0,0,.37-.13.74.74,0,0,0,.29-.32c0-.07.06-.12.08-.18a.35.35,0,0,1,.05-.12h.21a2.66,2.66,0,0,1-.48,1,1.84,1.84,0,0,1-.53.49l-.33.14a.82.82,0,0,1-.28,0,.44.44,0,0,1-.32-.11.88.88,0,0,1-.21-.3,1.6,1.6,0,0,1-.11-.4,1.41,1.41,0,0,1,0-.45c0-.22.09-.41.13-.57Z" transform="translate(0 -2.88)"/><path d="M295.06,201.54a33.13,33.13,0,0,0,2.43-2.73,2.91,2.91,0,0,0,.64-1.69,1.46,1.46,0,0,0-.39-1.1,1.3,1.3,0,0,0-.94-.38,1.33,1.33,0,0,0-1.08.49,2.55,2.55,0,0,0-.44.82l-.21,0a2.52,2.52,0,0,1,.83-1.56,2,2,0,0,1,1.25-.44,1.8,1.8,0,0,1,1.34.52,1.75,1.75,0,0,1,.51,1.27,2.52,2.52,0,0,1-.56,1.54,29.63,29.63,0,0,1-2.4,2.65h2.25a1.33,1.33,0,0,0,.66-.12,1.45,1.45,0,0,0,.43-.54l.12.06-.54,1.36h-3.9Z" transform="translate(0 -2.88)"/><rect x="293.56" y="189.93" width="7.4" height="0.5"/><rect x="59.27" y="186.7" width="6.29" height="0.66"/><path d="M66,192.9a38.06,38.06,0,0,0,2.91-3.26,3.49,3.49,0,0,0,.77-2,1.75,1.75,0,0,0-.47-1.31,1.55,1.55,0,0,0-1.12-.46,1.62,1.62,0,0,0-1.3.59,3.18,3.18,0,0,0-.53,1l-.25-.06a3,3,0,0,1,1-1.87,2.46,2.46,0,0,1,1.5-.52,2.19,2.19,0,0,1,1.61.62,2.15,2.15,0,0,1,.61,1.53,3.08,3.08,0,0,1-.66,1.85,40.58,40.58,0,0,1-2.88,3.16h2.69a1.68,1.68,0,0,0,.79-.13,1.87,1.87,0,0,0,.52-.66l.15.07L70.68,193H66Z" transform="translate(0 -2.88)"/><path d="M75.86,191c.08-.33.17-.62.25-.87l.69-1.93H75.44c-.12.36-.26.77-.43,1.24s-.33.92-.49,1.35c-.24.62-.44,1.11-.61,1.47a2.63,2.63,0,0,1-.42.7.91.91,0,0,1-.39.23,1,1,0,0,1-.27.05.44.44,0,0,1-.35-.15.36.36,0,0,1-.13-.31,2.1,2.1,0,0,1,0-.21.94.94,0,0,1,.18-.34l.34-.32.16-.14s.12-.12.25-.25a1.44,1.44,0,0,0,.37-.57l1-2.75h-.57a1.1,1.1,0,0,0-.47.1,1.39,1.39,0,0,0-.41.28l-.35.37h-.2l.37-.61a4.89,4.89,0,0,1,.45-.54,2.4,2.4,0,0,1,.59-.46,1.37,1.37,0,0,1,.7-.17H79.3l-.26,1H77.53c-.16.46-.31.92-.45,1.37s-.27.91-.4,1.45-.1.66,0,.76a.68.68,0,0,0,.25.24.5.5,0,0,0,.27.07.8.8,0,0,0,.44-.15.94.94,0,0,0,.35-.39,1.8,1.8,0,0,0,.08-.21l.06-.14h.26a3.05,3.05,0,0,1-.58,1.2,2,2,0,0,1-.63.58,2.58,2.58,0,0,1-.4.17.88.88,0,0,1-.33,0,.53.53,0,0,1-.39-.13,1,1,0,0,1-.24-.36,1.46,1.46,0,0,1-.14-.48,1.72,1.72,0,0,1,0-.54q.08-.39.15-.69Z" transform="translate(0 -2.88)"/><path d="M527,192.57a.51.51,0,0,1,0-.13l1.13-4.09h-.89a.43.43,0,0,1,0-.2s0-.05.11-.08a4.85,4.85,0,0,0,.93-.49,6.42,6.42,0,0,0,.89-.91l.09-.11,0,0h.05l.08,0a.26.26,0,0,1,0,.08.13.13,0,0,1,0,.06L529.2,188h1l-.07.4h-1L528,192.29a.28.28,0,0,0,0,.2.17.17,0,0,0,.16.1c.1,0,.24-.11.43-.31s.28-.32.53-.65l.15.09-.08.12a4.25,4.25,0,0,1-.89,1,1.22,1.22,0,0,1-.73.3.52.52,0,0,1-.43-.16.52.52,0,0,1-.14-.36A.38.38,0,0,1,527,192.57Z" transform="translate(0 -2.88)"/><path class="e" d="M259.34,8.12h.2a3.13,3.13,0,0,0,.36,1,1.32,1.32,0,0,0,1.2.66,1,1,0,0,0,.69-.25.82.82,0,0,0,.25-.63.92.92,0,0,0-.14-.47,1.6,1.6,0,0,0-.52-.45l-.66-.37a3.87,3.87,0,0,1-1.06-.78,1.4,1.4,0,0,1-.34-.93,1.42,1.42,0,0,1,.47-1.08A1.72,1.72,0,0,1,261,4.43a2.17,2.17,0,0,1,.68.12l.42.12a.28.28,0,0,0,.15,0,.22.22,0,0,0,.09-.1h.14l0,1.64h-.18a2.83,2.83,0,0,0-.32-.89,1.16,1.16,0,0,0-1.05-.58.81.81,0,0,0-.64.25.84.84,0,0,0-.24.59q0,.54.81,1l.77.42c.84.45,1.25,1,1.25,1.58a1.42,1.42,0,0,1-.51,1.13,2.06,2.06,0,0,1-1.36.44,3.17,3.17,0,0,1-.8-.12,4.39,4.39,0,0,0-.52-.11.13.13,0,0,0-.12.05.27.27,0,0,0-.09.12h-.15Z" transform="translate(0 -2.88)"/><path class="e" d="M267.41,5A2.14,2.14,0,0,1,268,6.67h-3.72a3.05,3.05,0,0,0,.62,2,1.72,1.72,0,0,0,1.31.62,1.69,1.69,0,0,0,1-.32,3.41,3.41,0,0,0,.78-.91l.21.07a3.43,3.43,0,0,1-.9,1.38,2.26,2.26,0,0,1-1.62.63,2,2,0,0,1-1.7-.83,3.22,3.22,0,0,1-.6-1.92,3.09,3.09,0,0,1,.7-2A2.23,2.23,0,0,1,266,4.47,2.07,2.07,0,0,1,267.41,5Zm-2.81.45a2.58,2.58,0,0,0-.27.8h2.48a2.44,2.44,0,0,0-.23-.87,1,1,0,0,0-1-.52A1.14,1.14,0,0,0,264.6,5.49Z" transform="translate(0 -2.88)"/><path class="e" d="M272.71,4.82a1.05,1.05,0,0,1,.53.83.55.55,0,0,1-.13.36.51.51,0,0,1-.42.16.48.48,0,0,1-.36-.14.85.85,0,0,1-.23-.41L272,5.34a.73.73,0,0,0-.26-.44,1,1,0,0,0-.51-.12,1.38,1.38,0,0,0-1.13.58,2.48,2.48,0,0,0-.46,1.55,2.65,2.65,0,0,0,.51,1.59,1.6,1.6,0,0,0,1.37.71,1.63,1.63,0,0,0,1.08-.4,3.86,3.86,0,0,0,.61-.73l.16.1a4.34,4.34,0,0,1-.7,1.11,2.13,2.13,0,0,1-1.64.79,2.21,2.21,0,0,1-1.62-.72,2.67,2.67,0,0,1-.7-2,3,3,0,0,1,.77-2.08,2.48,2.48,0,0,1,1.94-.88A2.11,2.11,0,0,1,272.71,4.82Z" transform="translate(0 -2.88)"/><path class="e" d="M275.32,9.47l0-.12,1.13-4.09h-.89a.69.69,0,0,1,0-.2.23.23,0,0,1,.12-.08,4.45,4.45,0,0,0,.92-.49,5.86,5.86,0,0,0,.9-.91l.09-.11,0,0h.06l.08,0a.24.24,0,0,1,0,.08v.06l-.35,1.28h1l-.07.4h-1L276.3,9.2a.28.28,0,0,0,0,.2.17.17,0,0,0,.16.1c.1,0,.24-.11.42-.31s.29-.33.54-.65l.15.09-.08.12a4.69,4.69,0,0,1-.89,1.05,1.22,1.22,0,0,1-.73.3.54.54,0,0,1-.44-.16.53.53,0,0,1-.13-.36Z" transform="translate(0 -2.88)"/></svg>